<?xml version="1.0" standalone="no"?><!DOCTYPE svg PUBLIC "-//W3C//DTD SVG 1.1//EN" "http://www.w3.org/Graphics/SVG/1.1/DTD/svg11.dtd"><svg class="icon" height="512" viewBox="0 0 1024 1024" version="1.1" xmlns="http://www.w3.org/2000/svg"><path d="M156.595013 401.711128l159.319565 0c20.299325 0 36.752042-16.477276 36.752042-36.776601 0-20.323884-16.452717-36.752042-36.752042-36.752042l-63.950498 0c57.670467-81.520665 152.567791-134.825708 260.047688-134.825708 175.970804 0 318.638107 142.667304 318.638107 318.637084 0 175.984107-142.667304 318.626851-318.638107 318.626851-175.996386 0-318.66369-142.643768-318.66369-318.626851 0-20.298302-16.45374-36.751019-36.753065-36.751019-20.323884 0-36.776601 16.452717-36.776601 36.751019 0 216.582757 175.572738 392.181077 392.19438 392.181077 216.569454 0 392.167774-175.59832 392.167774-392.181077 0-216.59299-175.599344-392.166751-392.167774-392.166751-131.450844 0-247.565399 64.794725-318.66369 164.083056l0-66.034972c0-20.322861-16.45374-36.776601-36.753065-36.776601-20.323884 0-36.776601 16.45374-36.776601 36.776601l0 147.060357C119.818411 385.233851 136.271128 401.711128 156.595013 401.711128" /></svg>